<svg width="1200" height="900" viewBox="0 0 1200 900" fill="none" xmlns="http://www.w3.org/2000/svg">
<rect width="1200" height="900" rx="40" fill="#F8F9FA"/>
<rect x="120" y="170" width="960" height="560" rx="36" fill="#FFFFFF" stroke="#E5E7EB" stroke-width="4"/>
<rect x="180" y="250" width="220" height="300" rx="28" fill="#FFF7ED" stroke="#FDBA74" stroke-width="3"/>
<rect x="440" y="250" width="220" height="300" rx="28" fill="#FFFFFF" stroke="#D1D5DB" stroke-width="3"/>
<rect x="700" y="250" width="220" height="300" rx="28" fill="#FFF7ED" stroke="#FDBA74" stroke-width="3"/>
<rect x="180" y="590" width="740" height="56" rx="18" fill="#111827" fill-opacity="0.88"/>
<circle cx="300" cy="330" r="62" fill="#F97316" fill-opacity="0.16"/>
<circle cx="560" cy="330" r="62" fill="#F97316" fill-opacity="0.16"/>
<circle cx="820" cy="330" r="62" fill="#F97316" fill-opacity="0.16"/>
<rect x="260" y="405" width="60" height="12" rx="6" fill="#D1D5DB"/>
<rect x="520" y="405" width="60" height="12" rx="6" fill="#D1D5DB"/>
<rect x="780" y="405" width="60" height="12" rx="6" fill="#D1D5DB"/>
<path d="M180 730H1020" stroke="#E5E7EB" stroke-width="4" stroke-linecap="round"/>
<path d="M220 740C320 700 420 690 520 740C620 790 720 790 960 720" stroke="#F97316" stroke-width="8" stroke-linecap="round" opacity="0.5"/>
</svg>
