<svg width="1200" height="900" viewBox="0 0 1200 900" fill="none" xmlns="http://www.w3.org/2000/svg">
<rect width="1200" height="900" rx="40" fill="#F8F9FA"/>
<circle cx="980" cy="160" r="210" fill="#FED7AA" fill-opacity="0.45"/>
<circle cx="220" cy="760" r="260" fill="#E5E7EB" fill-opacity="0.75"/>
<path d="M190 250C190 228.954 207.954 211 229 211H590C611.046 211 629 228.954 629 250V650C629 671.046 611.046 689 590 689H229C207.954 689 190 671.046 190 650V250Z" fill="#FFFFFF" stroke="#E5E7EB" stroke-width="4"/>
<rect x="255" y="270" width="125" height="355" rx="28" fill="#FFF7ED" stroke="#FDBA74" stroke-width="3"/>
<rect x="405" y="300" width="125" height="325" rx="28" fill="#FFF" stroke="#D1D5DB" stroke-width="3"/>
<rect x="315" y="345" width="260" height="30" rx="15" fill="#F97316" fill-opacity="0.9"/>
<rect x="315" y="398" width="210" height="20" rx="10" fill="#E5E7EB"/>
<rect x="315" y="436" width="230" height="20" rx="10" fill="#E5E7EB"/>
<rect x="315" y="474" width="188" height="20" rx="10" fill="#E5E7EB"/>
<rect x="315" y="512" width="202" height="20" rx="10" fill="#E5E7EB"/>
<rect x="720" y="220" width="300" height="420" rx="36" fill="#FFFFFF" stroke="#E5E7EB" stroke-width="4"/>
<rect x="760" y="265" width="220" height="30" rx="15" fill="#111827" fill-opacity="0.9"/>
<rect x="760" y="320" width="180" height="18" rx="9" fill="#D1D5DB"/>
<rect x="760" y="358" width="240" height="18" rx="9" fill="#D1D5DB"/>
<rect x="760" y="396" width="210" height="18" rx="9" fill="#D1D5DB"/>
<rect x="760" y="468" width="220" height="120" rx="28" fill="#FFF7ED" stroke="#FDBA74" stroke-width="3"/>
<path d="M785 520H955" stroke="#F97316" stroke-width="8" stroke-linecap="round"/>
<path d="M785 548H915" stroke="#F97316" stroke-width="8" stroke-linecap="round" opacity="0.7"/>
<path d="M785 576H890" stroke="#F97316" stroke-width="8" stroke-linecap="round" opacity="0.4"/>
<path d="M140 760C280 700 420 710 560 760C700 810 840 820 1060 740" stroke="#F97316" stroke-width="8" stroke-linecap="round" stroke-dasharray="20 18" opacity="0.4"/>
</svg>
