<svg width="1200" height="630" viewBox="0 0 1200 630" fill="none" xmlns="http://www.w3.org/2000/svg">
<rect width="1200" height="630" fill="#F8F9FA"/>
<circle cx="1020" cy="120" r="180" fill="#FED7AA" fill-opacity="0.45"/>
<circle cx="180" cy="520" r="220" fill="#E5E7EB" fill-opacity="0.8"/>
<rect x="90" y="88" width="1020" height="454" rx="40" fill="#FFFFFF" stroke="#E5E7EB" stroke-width="3"/>
<rect x="140" y="138" width="250" height="65" rx="20" fill="#F97316"/>
<rect x="140" y="235" width="540" height="28" rx="14" fill="#111827" fill-opacity="0.9"/>
<rect x="140" y="292" width="440" height="18" rx="9" fill="#D1D5DB"/>
<rect x="140" y="324" width="500" height="18" rx="9" fill="#D1D5DB"/>
<rect x="140" y="356" width="380" height="18" rx="9" fill="#D1D5DB"/>
<rect x="720" y="170" width="300" height="300" rx="32" fill="#FFF7ED" stroke="#FDBA74" stroke-width="3"/>
<rect x="760" y="210" width="220" height="24" rx="12" fill="#F97316"/>
<rect x="760" y="255" width="180" height="16" rx="8" fill="#D1D5DB"/>
<rect x="760" y="285" width="210" height="16" rx="8" fill="#D1D5DB"/>
<rect x="760" y="315" width="170" height="16" rx="8" fill="#D1D5DB"/>
<path d="M760 385H960" stroke="#F97316" stroke-width="8" stroke-linecap="round"/>
</svg>
